<svg height="512" viewBox="0 0 60 60" width="512" xmlns="http://www.w3.org/2000/svg"><g id="023---Cricket" fill="none"><g id="Icons" transform="translate(1 1)"><path id="Shape" d="m57.65 9-9.14 9.14-3.51-3.56 9.14-9.23c.1893156-.20521118.4558011-.32193289.735-.32193289s.5456844.11672171.735.32193289l2.09 2.16c.2056611.19671832.3177614.47174639.3082166.75618177-.0095448.28443537-.1398304.55132968-.3582166.73381823z" fill="#783e22"/><path id="Shape" d="m38 1v3h-1c-.5522847 0-1 .44771525-1 1h-6c0-.55228475-.4477153-1-1-1h-2c-.5522847 0-1 .44771525-1 1h-6c0-.55228475-.4477153-1-1-1h-1v-3c0-.55228475.4477153-1 1-1h18c.5522847 0 1 .44771525 1 1z" fill="#fec108"/><circle id="Oval" cx="8" cy="19" fill="#f44335" r="8"/><g fill="#ffdc00"><path id="Shape" d="m40 5v10.31l-4 4v-14.31c0-.55228475.4477153-1 1-1h2c.5522847 0 1 .44771525 1 1z"/><path id="Shape" d="m40 30.87v26.13c0 .5522847-.4477153 1-1 1h-2c-.5522847 0-1-.4477153-1-1v-22.13z"/><path id="Shape" d="m30 5v20.28l-4 4v-24.28c0-.55228475.4477153-1 1-1h2c.5522847 0 1 .44771525 1 1z"/><path id="Shape" d="m30 40.87v16.13c0 .5522847-.4477153 1-1 1h-2c-.5522847 0-1-.4477153-1-1v-12.13z"/><path id="Shape" d="m20 5v30.26l-4 4v-34.26c0-.55228475.4477153-1 1-1h2c.5522847 0 1 .44771525 1 1z"/><path id="Shape" d="m20 50.87v6.13c0 .5522847-.4477153 1-1 1h-2c-.5522847 0-1-.4477153-1-1v-2.13z"/></g><path id="Shape" d="m13.6 13.4-11.2 11.2c-.87283415-.8360914-1.54025862-1.8628983-1.95-3l10.09-10.14c1.1549402.404142 2.2017848 1.0678278 3.06 1.94z" fill="#c81e1e"/><path id="Shape" d="m15.55 16.43-10.11 10.11c-1.13042969-.4183169-2.15473766-1.0807027-3-1.94l11.16-11.2c.8692519.8507809 1.5357407 1.886402 1.95 3.03z" fill="#c81e1e"/><path id="Shape" d="m49.42 21.45-36.25 36.25c-.1877666.1893127-.4433625.2957983-.71.2957983s-.5222334-.1064856-.71-.2957983l-6.44-6.38c-.24051916-.2448412-.338671-.5959228-.26-.93.12-.55-1.84 1.71 36.59-36.72.3047033-.30789.7729935-.3845927 1.16-.19l2.2 1.1 3.53 3.53 1.1 2.18c.1895813.3912084.1046987.8600836-.21 1.16z" fill="#f57c00"/><path id="Shape" d="m47.71 19.07-36.25 36.25c-.1877666.1893127-.4433625.2957983-.71.2957983s-.5222334-.1064856-.71-.2957983l-5-4.93c.04047275-.1810167.13049391-.3472097.26-.48l36.34-36.24c.3047033-.30789.7729935-.3845927 1.16-.19l2.2 1.1 2.48 2.48.43.86c.1871841.3865111.1066853.8493793-.2 1.15z" fill="#ff9801"/></g><path id="Shape" d="m57.29 5.6c-.3751365-.37555409-.8841815-.58657331-1.415-.58657331s-1.0398635.21101922-1.415.58657331l-8.68 8.76-1.54-.77c-.7430469-.3639222-1.6334708-.2327437-2.24.33v-7.92c0-1.1045695-.8954305-2-2-2v-2c0-1.1045695-.8954305-2-2-2h-18c-1.1045695 0-2 .8954305-2 2v2c-1.1045695 0-2 .8954305-2 2v8.5c-1.6859336-2.1628306-4.2581754-3.4489515-7-3.5-4.91736288.1261479-8.87385207 4.0826371-9 9 .12614793 4.9173629 4.08263712 8.8738521 9 9 2.7418246-.0510485 5.3140664-1.3371694 7-3.5v14.33l-10.4 10.37c-.76228575.777687-.76228575 2.022313 0 2.8l6.45 6.38c.3751365.3755541.8841815.5865733 1.415.5865733s1.0398635-.2110192 1.415-.5865733l1.12-1.12c.1313358 1.0019841.9894814 1.7485708 2 1.74h2c1.1045695 0 2-.8954305 2-2v-5.72l4-4v9.72c0 1.1045695.8954305 2 2 2h2c1.1045695 0 2-.8954305 2-2v-15.72l4-4v19.72c0 1.1045695.8954305 2 2 2h2c1.1045695 0 2-.8954305 2-2v-25.72l9.13-9.12c.6077772-.6100488.7568332-1.5406413.37-2.31l-.77-1.54 8.68-8.68c.7754472-.78007491.7754472-2.03992509 0-2.82zm-17.29 52.4h-2v-21.72l2-2zm-12-30.14v-21.86h2v19.87zm4-20.86h4v12.88l-4 4zm8-1v9.89l-2 2v-11.89zm-2-2c-.7102221.00428692-1.3648954.38491093-1.72 1h-4.56c-.3551046-.61508907-1.0097779-.99571308-1.72-1v-2h8zm-18-2h8v2c-.7102221.00428692-1.3648954.38491093-1.72 1h-4.56c-.3551046-.61508907-1.0097779-.99571308-1.72-1zm0 4v29.84l-2 2v-31.84zm-16.55 18.14c-.32235238-.4183349-.59736338-.871097-.82-1.35l9.16-9.16c.478903.2226366.9316651.4976476 1.35.82zm11.1-8.28c.3200436.4163483.5949213.8655388.82 1.34l-9.17 9.17c-.4744612-.2250787-.92365165-.4999564-1.34-.82zm-4.99-2.86-7.56 7.56c-.13064118-2.0422923.62380684-4.0420526 2.07087713-5.4891229s3.44683059-2.2015183 5.48912287-2.0708771zm-1.13 14 7.57-7.57c.1339586 2.0458231-.6204718 4.0501016-2.0701851 5.4998149s-3.4539918 2.2041437-5.4998149 2.0701851zm13.57-20h4v22.85l-4 4zm-2 51h-2v-1.72l2-2zm10 0h-2v-11.72l2-2zm-16.54 0c-.06-.1.85.84-6.45-6.38 22.23-22.18-32.86 32.77 36.34-36.24l2 1 3.3 3.3 1 2c-37.54 37.67-36.09 36.32-36.19 36.32zm36.06-40.3-2.13-2.13 8.48-8.57 2.13 2.21z" fill="#000"/></g></svg>