<?xml version="1.0" encoding="iso-8859-1"?>
<!-- Generator: Adobe Illustrator 19.0.0, SVG Export Plug-In . SVG Version: 6.00 Build 0)  -->
<svg version="1.1" id="Layer_1" xmlns="http://www.w3.org/2000/svg" xmlns:xlink="http://www.w3.org/1999/xlink" x="0px" y="0px"
	 viewBox="0 0 508.609 508.609" style="enable-background:new 0 0 508.609 508.609;" xml:space="preserve">
<circle style="fill:#FD8469;" cx="254.305" cy="254.305" r="217.007"/>
<path style="fill:#CED5E0;" d="M345.515,95.619c0,0,23.396,33.229,23.735,68.154c0,0,10.511,76.63-6.781,86.803l-3.73,15.936
	l-23.057-2.374l2.713-15.597c0,0-13.224-100.026-17.971-103.756L345.515,95.619z"/>
<path style="fill:#2B3B4E;" d="M324.154,496.064c1.695,0.339,3.391,1.356,5.086,1.695c1.356,0.339,3.052,0,4.069,0.678
	c1.017,0.678,1.356,2.034,1.356,3.391s-0.678,2.374-1.017,3.391c-0.339,0.678-0.678,1.017-1.017,1.356
	c-0.339,0.339-1.017,0.339-1.356,0.678c-5.764,1.356-12.207,1.356-18.31,1.356c-2.713,0-5.425,0-8.138-0.678
	c-1.017-0.339-2.034-0.678-2.374-1.356c0-0.339-0.339-0.678-0.339-1.017c-0.339-1.356-0.678-2.713-0.678-4.069
	c0-1.356,0.339-2.713,1.695-3.391c0.339-0.339,1.017-0.339,1.695-0.339c1.356-0.339,2.713-0.678,4.069-0.678
	c1.695-0.339,3.391-0.678,5.086-1.017c2.034-0.339,4.069-0.339,6.103-0.339C321.102,495.724,322.797,495.724,324.154,496.064z"/>
<path style="fill:#324A5E;" d="M297.028,478.093c0-1.017,0-1.695,0.678-2.374c0.339-0.339,0.678-0.678,1.356-0.678
	c2.374-1.017,4.747-2.374,6.781-4.069c1.017-0.678,2.374-1.695,3.73-1.695c0.678,0,1.356,0,2.374,0.339
	c1.356,0.339,2.713,0.678,4.069,1.017c1.356,0.339,2.374,0.678,3.73,1.017c1.695,0.678,3.052,1.695,4.408,2.713
	c0.339,1.356-0.339,2.373,0.339,3.73c0.339,0.339,0.339,0.678,0.678,0.678c1.695,2.034,2.374,4.408,3.052,6.781
	c1.017,3.052,2.374,5.764,4.069,8.477c0.678,1.017,1.356,2.034,1.695,3.052c0,0.339,0.339,1.017,0,1.356
	c-0.339,0.339-0.339,0.339-0.678,0.339c-3.391,0.678-6.781,1.695-10.172,1.695c-2.713,0-5.425-0.678-8.138-0.339
	c-0.678,0-1.695,0.339-2.374,0.339c-1.695,0.339-3.73,0.339-5.425,0.339c-1.017,0-1.695,0-2.713-0.339
	c-1.017-0.339-1.695-1.017-1.695-2.034c0-0.678,0-1.356-0.339-2.034c0-0.339-0.339-0.678-0.678-0.678
	c-1.017-1.017-1.695-1.695-2.713-2.713c-0.339-0.339-0.678-0.678-1.017-1.017c-0.339-0.678-0.339-1.356-0.339-2.374
	C297.028,485.891,297.028,482.162,297.028,478.093z"/>
<path style="fill:#2B3B4E;" d="M218.363,496.064c-1.695,0.339-3.391,1.356-5.086,1.695c-1.356,0.339-3.052,0-4.069,0.678
	c-1.017,0.678-1.356,2.034-1.356,3.391s0.678,2.374,1.017,3.391c0.339,0.678,0.678,1.017,1.017,1.356
	c0.339,0.339,1.017,0.339,1.356,0.678c5.764,1.356,12.207,1.356,18.31,1.356c2.713,0,5.425,0,8.138-0.678
	c1.017-0.339,2.034-0.678,2.374-1.356c0-0.339,0.339-0.678,0.339-1.017c0.339-1.356,0.678-2.713,0.678-4.069
	c0-1.356-0.339-2.713-1.695-3.391c-0.339-0.339-1.017-0.339-1.695-0.339c-1.356-0.339-2.713-0.678-4.069-0.678
	c-1.695-0.339-3.391-0.678-5.086-1.017c-2.034-0.339-4.069-0.339-6.103-0.339C221.415,495.724,220.058,495.724,218.363,496.064z"/>
<path style="fill:#324A5E;" d="M245.828,478.093c0-1.017,0-1.695-0.678-2.374c-0.339-0.339-0.678-0.678-1.356-0.678
	c-2.373-1.017-4.747-2.374-6.781-4.069c-1.017-0.678-2.374-1.695-3.73-1.695c-0.678,0-1.356,0-2.374,0.339
	c-1.356,0.339-2.713,0.678-4.069,1.017c-1.356,0.339-2.373,0.678-3.73,1.017c-1.695,0.678-3.052,1.695-4.408,2.713
	c-0.339,1.356,0.339,2.373-0.339,3.73c0,0.339-0.339,0.678-0.678,0.678c-1.695,2.034-2.374,4.408-3.052,6.781
	c-1.017,3.052-2.374,5.764-4.069,8.477c-0.678,1.017-1.356,2.034-1.695,3.052c0,0.339-0.339,1.017,0,1.356
	c0.339,0.339,0.339,0.339,0.678,0.339c3.391,0.678,6.781,1.695,10.172,1.695c2.713,0,5.425-0.678,8.138-0.339
	c0.678,0,1.695,0.339,2.374,0.339c1.695,0.339,3.73,0.339,5.425,0.339c1.017,0,1.695,0,2.713-0.339
	c1.017-0.339,1.695-1.017,1.695-2.034c0-0.678,0-1.356,0.339-2.034c0-0.339,0.339-0.678,0.678-0.678
	c1.017-1.017,1.695-1.695,2.713-2.713c0.339-0.339,0.678-0.678,1.017-1.017c0.339-0.678,0.339-1.356,0.339-2.374
	C245.828,485.891,245.828,482.162,245.828,478.093z"/>
<path style="fill:#FFFFFF;" d="M328.562,250.236H213.955c-3.391,16.954,2.713,108.503,1.695,115.285h44.079
	c0-5.764,0.339-11.528,1.356-17.293c2.034-10.172,6.781-19.666,9.494-29.499c0.339-1.017,0.339-2.034,0.678-3.391
	c0.339,1.017,0.339,2.034,0.678,3.391c2.373,10.172,7.46,19.327,9.494,29.499c1.017,5.764,1.356,11.528,1.356,17.293h44.079
	C326.188,358.739,332.291,267.189,328.562,250.236z"/>
<path id="SVGCleanerId_0" style="fill:#CED5E0;" d="M340.09,358.061c-4.069-41.367-26.109-43.74-31.195-43.74
	s-26.787,2.374-31.195,43.74c0,0-1.017,16.276,2.034,20.005c0,0,8.138,67.815,8.138,79.004c0,0-8.477,28.482,10.85,24.413
	c0,0,3.73-7.121,9.833-10.511c6.103,3.052,9.833,10.511,9.833,10.511c19.327,4.408,10.85-24.413,10.85-24.413
	c0-11.189,8.138-79.004,8.138-79.004C341.107,374.336,340.09,358.061,340.09,358.061z"/>
<g>
	<path id="SVGCleanerId_0_1_" style="fill:#CED5E0;" d="M340.09,358.061c-4.069-41.367-26.109-43.74-31.195-43.74
		s-26.787,2.374-31.195,43.74c0,0-1.017,16.276,2.034,20.005c0,0,8.138,67.815,8.138,79.004c0,0-8.477,28.482,10.85,24.413
		c0,0,3.73-7.121,9.833-10.511c6.103,3.052,9.833,10.511,9.833,10.511c19.327,4.408,10.85-24.413,10.85-24.413
		c0-11.189,8.138-79.004,8.138-79.004C341.107,374.336,340.09,358.061,340.09,358.061z"/>
</g>
<path style="fill:#CED5E0;" d="M338.056,378.066c0,0-8.138,67.815-8.138,79.004c0,0,5.764,19.666-3.391,24.074
	c-0.339,0.339-1.017,0.339-1.695,0.678c-1.695,0.339-3.73,0.339-6.103-0.339c0,0-0.339-0.339-0.678-1.017
	c-0.339-0.678-1.017-1.695-2.034-3.052c-1.695-2.034-3.73-4.408-6.442-6.103c-0.339,0-0.678-0.339-0.678-0.339
	c-0.339,0-0.678,0.339-0.678,0.339c-2.713,1.695-5.086,4.069-6.442,6.103c-1.017,1.356-1.695,2.374-2.034,3.052
	c-0.339,0.678-0.678,1.017-0.678,1.017c-2.374,0.678-4.408,0.678-6.103,0.339c-0.678,0-1.017-0.339-1.695-0.678
	c-9.155-4.069-3.391-24.074-3.391-24.074c0-11.189-8.138-79.004-8.138-79.004c-3.052-3.391-2.034-20.005-2.034-20.005
	c1.695-15.936,5.764-26.109,10.85-32.551c0.678-0.678,1.356-1.356,1.695-2.034c2.373-2.374,4.747-4.408,6.781-5.764
	c0.678-0.339,1.017-0.678,1.695-1.017c3.73-1.695,7.121-2.373,8.816-2.373c0.339,0,0.678,0,0.678,0c0.339,0,0.678,0,0.678,0
	c2.034,0,5.086,0.678,8.816,2.373c0.678,0.339,1.017,0.678,1.695,1.017c2.374,1.356,4.747,3.052,6.781,5.764
	c0.678,0.678,1.356,1.356,1.695,2.034c5.086,6.442,9.155,16.615,10.85,32.551C340.09,358.061,341.107,374.336,338.056,378.066z"/>
<g>
	<path style="fill:#ACB3BA;" d="M324.832,466.564l1.695,14.58c-0.339,0.339-1.017,0.339-1.695,0.678l-1.695-14.919
		c-0.678-6.103-0.678-12.546,0.339-18.649c3.73-23.057,6.103-70.866,6.103-71.205h1.695c0,0.339-2.374,48.148-6.103,71.544
		C324.154,454.358,324.154,460.461,324.832,466.564z"/>
	<path style="fill:#ACB3BA;" d="M316.694,466.564l1.695,13.902c-0.339-0.678-1.017-1.695-2.034-3.052l-1.356-10.85
		c-0.678-6.103-0.678-12.546,0.339-18.649c3.73-23.057,6.103-70.866,6.103-71.205h1.695c0,0.339-2.374,48.148-6.103,71.544
		C316.016,454.358,316.016,460.461,316.694,466.564z"/>
	<path style="fill:#ACB3BA;" d="M294.993,466.564l-2.034,14.919c-0.678,0-1.017-0.339-1.695-0.678l1.695-14.58
		c0.678-6.103,0.678-12.207-0.339-18.31c-3.73-23.057-6.103-70.866-6.103-71.544h1.695c0,0.339,2.374,48.148,6.103,71.205
		C295.671,454.019,295.671,460.461,294.993,466.564z"/>
	<path style="fill:#ACB3BA;" d="M303.131,466.564l-1.356,10.85c-1.017,1.356-1.695,2.374-2.034,3.052l1.695-13.902
		c0.678-6.103,0.678-12.207-0.339-18.31c-3.73-23.057-6.103-70.866-6.103-71.544h1.695c0,0.339,2.374,48.148,6.103,71.205
		C303.809,454.019,303.809,460.461,303.131,466.564z"/>
	<path style="fill:#ACB3BA;" d="M309.913,376.71c0,0,0,47.809,0,71.205v23.396c-0.339,0-0.678-0.339-0.678-0.339
		c-0.339,0-0.678,0.339-0.678,0.339v-23.396c0-23.396,0-71.205,0-71.205L309.913,376.71L309.913,376.71z"/>
	<path style="fill:#ACB3BA;" d="M290.585,323.136c-1.356,17.632-2.034,32.89-2.034,33.229h-1.695c0-0.339,0.678-14.241,2.034-30.856
		C289.568,324.832,290.246,323.815,290.585,323.136z"/>
	<path style="fill:#ACB3BA;" d="M299.401,316.694c-1.695,20.005-2.374,39.332-2.374,39.672h-1.695
		c0-0.339,1.017-18.988,2.373-38.654C298.384,317.372,298.723,317.033,299.401,316.694z"/>
	<path style="fill:#ACB3BA;" d="M331.274,356.366h-1.695c0-0.339-0.678-15.597-2.034-33.229c0.678,0.678,1.356,1.356,1.695,2.034
		C330.596,342.125,331.274,356.026,331.274,356.366z"/>
	<path style="fill:#ACB3BA;" d="M323.136,356.366h-1.695c0-0.339-1.017-19.666-2.374-39.672c0.678,0.339,1.017,0.678,1.695,1.017
		C322.119,337.377,323.136,356.026,323.136,356.366z"/>
	<path style="fill:#ACB3BA;" d="M309.913,314.321c0,21.022,0,42.045,0,42.045h-1.695c0,0,0-21.023,0-42.045c0.339,0,0.678,0,0.678,0
		C309.234,314.321,309.573,314.321,309.913,314.321z"/>
</g>
<path style="fill:#E6E9EE;" d="M343.82,355.687v-1.017c0-2.713-2.374-4.747-5.086-4.747h-59.338c-2.713,0-5.086,2.034-5.086,4.747
	v1.017c0,1.695,1.017,3.052,2.374,4.069c-1.356,1.017-2.374,2.374-2.374,4.069v1.017c0,1.695,1.017,3.052,2.374,4.069
	c-1.356,1.017-2.374,2.373-2.374,4.069v1.017c0,2.713,2.374,4.747,5.086,4.747h59.338c2.713,0,5.086-2.034,5.086-4.747v-1.017
	c0-1.695-1.017-3.052-2.374-4.069c1.356-1.017,2.374-2.374,2.374-4.069v-1.017c0-1.695-1.017-3.052-2.374-4.069
	C343.142,359.078,343.82,357.383,343.82,355.687z"/>
<g>
	<path style="fill:#ACB3BA;" d="M279.396,360.095c1.695,0,4.408,0,7.46,0c3.052,0,6.442,0,10.511,0c3.73,0,7.799,0,11.868,0
		c4.069,0,8.138,0,11.868,0s7.46,0,10.511,0c3.052,0,5.425,0,7.46,0c1.695,0,2.713,0,2.713,0s-1.017,0-2.713,0
		c-1.695,0-4.408,0-7.46,0s-6.442,0-10.511,0c-3.73,0-7.799,0-11.868,0c-4.069,0-8.138,0-11.868,0s-7.46,0-10.511,0
		C283.804,359.756,281.091,359.756,279.396,360.095c-1.695,0-2.713,0-2.713,0S277.701,360.095,279.396,360.095z"/>
	<path style="fill:#ACB3BA;" d="M331.613,368.572c-3.052,0-6.442,0-10.511,0c-3.73,0-7.799,0-11.868,0c-4.069,0-8.138,0-11.868,0
		s-7.46,0-10.511,0s-5.425,0-7.46,0c-1.695,0-2.713,0-2.713,0s1.017,0,2.713,0s4.408,0,7.46,0c3.052,0,6.442,0,10.511,0
		c3.73,0,7.799,0,11.868,0c4.069,0,8.138,0,11.868,0S328.562,368.572,331.613,368.572s5.425,0,7.46,0c1.695,0,2.713,0,2.713,0
		s-1.017,0-2.713,0C337.038,368.911,334.665,368.572,331.613,368.572z"/>
</g>
<path id="SVGCleanerId_1" style="fill:#CED5E0;" d="M200.053,358.061c4.069-41.367,26.109-43.74,31.195-43.74
	s26.787,2.374,31.195,43.74c0,0,1.017,16.276-2.034,20.005c0,0-8.138,67.815-8.138,79.004c0,0,8.477,28.482-10.85,24.413
	c0,0-3.73-7.121-9.833-10.511c-6.103,3.052-9.833,10.511-9.833,10.511c-19.327,4.408-10.85-24.413-10.85-24.413
	c0-11.189-8.138-79.004-8.138-79.004C199.036,374.336,200.053,358.061,200.053,358.061z"/>
<g>
	<path id="SVGCleanerId_1_1_" style="fill:#CED5E0;" d="M200.053,358.061c4.069-41.367,26.109-43.74,31.195-43.74
		s26.787,2.374,31.195,43.74c0,0,1.017,16.276-2.034,20.005c0,0-8.138,67.815-8.138,79.004c0,0,8.477,28.482-10.85,24.413
		c0,0-3.73-7.121-9.833-10.511c-6.103,3.052-9.833,10.511-9.833,10.511c-19.327,4.408-10.85-24.413-10.85-24.413
		c0-11.189-8.138-79.004-8.138-79.004C199.036,374.336,200.053,358.061,200.053,358.061z"/>
</g>
<path style="fill:#CED5E0;" d="M202.087,378.066c0,0,8.138,67.815,8.138,79.004c0,0-5.764,19.666,3.391,24.074
	c0.339,0.339,1.017,0.339,1.695,0.678c1.695,0.339,3.73,0.339,6.103-0.339c0,0,0.339-0.339,0.678-1.017
	c0.339-0.678,1.017-1.695,2.034-3.052c1.695-2.034,3.73-4.408,6.442-6.103c0.339,0,0.678-0.339,0.678-0.339
	c0.339,0,0.678,0.339,0.678,0.339c2.713,1.695,5.086,4.069,6.442,6.103c1.017,1.356,1.695,2.374,2.034,3.052
	s0.678,1.017,0.678,1.017c2.374,0.678,4.408,0.678,6.103,0.339c0.678,0,1.017-0.339,1.695-0.678
	c9.155-4.069,3.391-24.074,3.391-24.074c0-11.189,8.138-79.004,8.138-79.004c3.052-3.391,2.034-20.005,2.034-20.005
	c-1.695-15.936-5.764-26.109-10.85-32.551c-0.678-0.678-1.356-1.356-1.695-2.034c-2.374-2.374-4.747-4.408-6.781-5.764
	c-0.678-0.339-1.017-0.678-1.695-1.017c-3.73-1.695-7.121-2.373-8.816-2.373c-0.339,0-0.678,0-0.678,0c-0.339,0-0.678,0-0.678,0
	c-2.034,0-5.086,0.678-8.816,2.373c-0.678,0.339-1.017,0.678-1.695,1.017c-2.374,1.356-4.747,3.052-6.781,5.764
	c-0.678,0.678-1.356,1.356-1.695,2.034c-5.086,6.442-9.155,16.615-10.85,32.551C200.053,358.061,199.036,374.336,202.087,378.066z"
	/>
<g>
	<path style="fill:#ACB3BA;" d="M215.311,466.564l-1.695,14.58c0.339,0.339,1.017,0.339,1.695,0.678l1.695-14.919
		c0.678-6.103,0.678-12.546-0.339-18.649c-3.73-23.057-6.103-70.866-6.103-71.205h-1.695c0,0.339,2.374,48.148,6.103,71.544
		C215.989,454.358,215.989,460.461,215.311,466.564z"/>
	<path style="fill:#ACB3BA;" d="M223.449,466.564l-1.695,13.902c0.339-0.678,1.017-1.695,2.034-3.052l1.356-10.85
		c0.678-6.103,0.678-12.546-0.339-18.649c-3.73-23.057-6.103-70.866-6.103-71.205h-1.695c0,0.339,2.374,48.148,6.103,71.544
		C224.127,454.358,224.127,460.461,223.449,466.564z"/>
	<path style="fill:#ACB3BA;" d="M245.15,466.564l2.034,14.919c0.678,0,1.017-0.339,1.695-0.678l-1.695-14.58
		c-0.678-6.103-0.678-12.207,0.339-18.31c3.73-23.057,6.103-70.866,6.103-71.544h-1.695c0,0.339-2.373,48.148-6.103,71.205
		C244.471,454.019,244.471,460.461,245.15,466.564z"/>
	<path style="fill:#ACB3BA;" d="M237.012,466.564l1.356,10.85c1.017,1.356,1.695,2.374,2.034,3.052l-1.695-13.902
		c-0.678-6.103-0.678-12.207,0.339-18.31c3.73-23.057,6.103-70.866,6.103-71.544h-1.695c0,0.339-2.373,48.148-6.103,71.205
		C236.334,454.019,236.334,460.461,237.012,466.564z"/>
	<path style="fill:#ACB3BA;" d="M230.23,376.71c0,0,0,47.809,0,71.205v23.396c0.339,0,0.678-0.339,0.678-0.339
		c0.339,0,0.678,0.339,0.678,0.339v-23.396c0-23.396,0-71.205,0-71.205L230.23,376.71L230.23,376.71z"/>
	<path style="fill:#ACB3BA;" d="M249.558,323.136c1.356,17.632,2.034,32.89,2.034,33.229h1.695c0-0.339-0.678-14.241-2.034-30.856
		C250.575,324.832,250.236,323.815,249.558,323.136z"/>
	<path style="fill:#ACB3BA;" d="M240.742,316.694c1.695,20.005,2.373,39.332,2.373,39.672h1.695c0-0.339-1.017-18.988-2.374-38.654
		C242.098,317.372,241.42,317.033,240.742,316.694z"/>
	<path style="fill:#ACB3BA;" d="M208.869,356.366h1.695c0-0.339,0.678-15.597,2.034-33.229c-0.678,0.678-1.356,1.356-1.695,2.034
		C209.547,342.125,208.869,356.026,208.869,356.366z"/>
	<path style="fill:#ACB3BA;" d="M217.007,356.366h1.695c0-0.339,1.017-19.666,2.373-39.672c-0.678,0.339-1.017,0.678-1.695,1.017
		C218.024,337.377,217.007,356.026,217.007,356.366z"/>
	<path style="fill:#ACB3BA;" d="M230.23,314.321c0,21.022,0,42.045,0,42.045h1.695c0,0,0-21.023,0-42.045c-0.339,0-0.678,0-0.678,0
		C230.909,314.321,230.57,314.321,230.23,314.321z"/>
</g>
<path style="fill:#E6E9EE;" d="M196.323,355.687v-1.017c0-2.713,2.374-4.747,5.086-4.747h59.338c2.713,0,5.086,2.034,5.086,4.747
	v1.017c0,1.695-1.017,3.052-2.374,4.069c1.356,1.017,2.374,2.374,2.374,4.069v1.017c0,1.695-1.017,3.052-2.374,4.069
	c1.356,1.017,2.374,2.373,2.374,4.069v1.017c0,2.713-2.374,4.747-5.086,4.747h-59.338c-2.713,0-5.086-2.034-5.086-4.747v-1.017
	c0-1.695,1.017-3.052,2.374-4.069c-1.356-1.017-2.374-2.374-2.374-4.069v-1.017c0-1.695,1.017-3.052,2.374-4.069
	C197.34,359.078,196.323,357.383,196.323,355.687z"/>
<g>
	<path style="fill:#ACB3BA;" d="M260.747,360.095c-1.695,0-4.408,0-7.46,0s-6.442,0-10.511,0c-3.73,0-7.799,0-11.868,0
		s-8.138,0-11.868,0c-3.73,0-7.46,0-10.511,0c-3.052,0-5.425,0-7.46,0c-1.695,0-2.713,0-2.713,0s1.017,0,2.713,0
		c1.695,0,4.408,0,7.46,0s6.442,0,10.511,0c3.73,0,7.799,0,11.868,0s8.138,0,11.868,0s7.46,0,10.511,0
		C256.339,359.756,259.052,359.756,260.747,360.095c1.695,0,2.713,0,2.713,0S262.442,360.095,260.747,360.095z"/>
	<path style="fill:#ACB3BA;" d="M208.869,368.572c3.052,0,6.442,0,10.511,0c3.73,0,7.799,0,11.868,0s8.138,0,11.868,0
		c3.73,0,7.46,0,10.511,0c3.052,0,5.425,0,7.46,0c1.695,0,2.713,0,2.713,0s-1.017,0-2.713,0c-1.695,0-4.408,0-7.46,0
		c-3.052,0-6.442,0-10.511,0c-3.73,0-7.799,0-11.868,0s-8.138,0-11.868,0S211.92,368.572,208.869,368.572s-5.425,0-7.46,0
		c-1.695,0-2.713,0-2.713,0s1.017,0,2.713,0C203.105,368.911,205.817,368.572,208.869,368.572z"/>
</g>
<path style="fill:#FFD05B;" d="M256,262.781h165.807c4.408,10.511,4.408,22.04,0,32.551H256
	c-3.391-12.207-16.954-12.546-16.954-12.546v-7.46C239.046,275.666,252.609,275.327,256,262.781z"/>
<polygon style="fill:#F9B54C;" points="252.27,285.499 296.689,279.057 252.27,272.615 "/>
<path style="fill:#324A5E;" d="M247.523,273.293h-82.056v11.868h82.056c2.034,1.017,4.069,2.713,5.764,4.747
	c1.695-2.713,2.713-6.442,2.713-10.85c0-4.408-1.017-8.138-2.713-10.85C251.592,270.58,249.558,272.276,247.523,273.293z"/>
<path style="fill:#CED5E0;" d="M292.62,54.93c-6.103,3.052-14.241,4.069-20.344,4.069l0,0c-6.442,0-15.258-1.017-21.701-4.069
	c0,0-7.46,5.086-8.477,13.902c0,0,12.546,5.425,31.195,5.764l0,0c17.293-0.678,28.482-5.764,28.482-5.764
	C299.74,60.355,292.62,54.93,292.62,54.93z"/>
<path style="fill:#FFD05B;" d="M206.495,268.546c0-2.374,0-4.747-0.339-6.781h-19.327c-0.339,2.374-0.339,4.747-0.339,6.781
	c0,3.391-1.017,6.442-3.052,9.155c-0.678,1.356-1.356,2.713-1.356,4.408v0.678c0,4.408,3.73,8.138,8.138,8.138h12.207
	c4.408,0,8.138-3.73,8.138-8.138v-0.678c0-1.695-0.339-3.052-1.356-4.408C207.513,274.988,206.495,271.936,206.495,268.546z"/>
<path style="fill:#CED5E0;" d="M198.358,95.619c0,0-23.396,33.229-23.735,68.154c0,0-10.511,76.63,6.781,86.803l3.73,15.936
	l23.057-2.374l-2.713-15.597c0,0,8.477-68.154,9.155-73.579c1.356-10.85,4.408-26.109,8.816-30.177L198.358,95.619z"/>
<path style="fill:#E6E9EE;" d="M345.515,95.619c-6.442-12.207-44.419-27.126-44.419-27.126h-17.293h-23.735h-17.632
	c0,0-37.976,14.919-44.419,27.126c0,0,32.89,81.717,22.04,109.86c0,0-9.494,29.838-8.138,45.436h47.809h23.735h47.809
	c1.356-15.597-8.138-45.436-8.138-45.436C312.625,177.335,345.515,95.619,345.515,95.619z"/>
<path style="fill:#FFD05B;" d="M302.792,34.925c-0.678-0.339-1.695-0.339-2.713,0c0-1.017,0-2.034,0-2.713
	c0-21.701-12.885-31.873-28.821-31.873c-15.936,0-28.821,10.172-28.821,31.873c0,1.017,0,2.034,0,2.713
	c-1.017-0.339-2.034-0.339-2.713,0c-2.374,1.356-2.374,5.764-0.339,10.172c1.695,3.052,4.069,5.086,6.103,5.764
	c4.747,14.919,14.58,27.465,25.77,27.465c11.529,0,21.023-12.546,25.77-27.465c2.034-0.678,4.408-2.713,6.103-5.764
	C305.505,40.689,305.166,35.942,302.792,34.925z"/>
<path style="fill:#324A5E;" d="M298.723,65.441c3.73-6.103,6.103-13.224,6.103-21.362c0-5.425-1.017-10.85-3.052-15.936
	l-0.339-0.678H241.42l-0.339,0.678c-2.034,5.086-3.052,10.511-3.052,15.936c0,20.683,14.919,37.298,33.229,37.298
	c11.189,0,21.023-6.103,27.126-15.597C298.723,65.78,298.723,65.441,298.723,65.441z M246.167,64.763
	c-1.695-2.374-3.052-5.086-4.069-8.138c3.73,2.034,10.511,3.391,17.971,4.069l1.695,7.799
	C255.322,68.493,249.219,66.797,246.167,64.763C246.506,65.102,246.506,65.102,246.167,64.763z M302.114,48.487
	c0,1.356-0.339,3.052-0.678,4.408h-0.339c0,1.017-2.713,3.052-8.138,4.408c-3.052,0.678-6.442,1.356-10.172,1.695l2.034-8.138
	C291.264,50.183,297.367,49.505,302.114,48.487z M280.413,58.999c-2.713,0.339-5.764,0.339-9.155,0.339
	c-3.391,0-6.103,0-9.155-0.339l-2.034-8.477c3.73,0.339,7.46,0.339,11.189,0.339c3.73,0,7.46,0,11.189-0.339L280.413,58.999z
	 M258.034,50.522l2.034,8.138c-3.73-0.339-7.121-1.017-10.172-1.695c-5.764-1.356-8.138-3.052-8.138-4.408h-0.339
	c-0.339-1.356-0.678-3.052-0.678-4.408C245.15,49.505,251.253,50.183,258.034,50.522z M262.781,61.372
	c2.713,0.339,5.764,0.339,8.816,0.339s5.764,0,8.816-0.339l-1.695,7.799c-2.034,0-4.408,0.339-7.121,0.339
	c-2.374,0-4.408,0-6.781-0.339L262.781,61.372z M282.448,61.033c7.46-0.678,14.241-2.034,17.971-4.069
	c-1.017,2.713-2.034,5.086-3.391,7.46c-2.034,2.034-7.799,3.73-16.276,4.747L282.448,61.033z M243.115,29.838h56.625
	c1.695,4.408,2.713,9.494,2.713,14.58c0,0.678,0,1.356,0,2.034c-5.086,1.017-11.189,1.695-18.31,2.374l0,0c-0.339,0-0.339,0-0.678,0
	c-3.73,0.339-7.799,0.339-12.207,0.339c-4.069,0-8.138,0-12.207-0.339c-0.339,0-0.339,0-0.678,0l0,0
	c-7.121-0.339-13.224-1.356-18.31-2.374c0-0.678,0-1.356,0-2.034C240.064,38.993,241.081,34.246,243.115,29.838z M249.219,68.832
	c3.391,1.356,8.138,2.034,13.563,2.713l1.695,7.121C258.373,76.63,253.287,73.24,249.219,68.832z M266.85,79.004l-1.695-7.46
	c2.034,0,4.069,0.339,6.103,0.339c2.374,0,4.408,0,6.442-0.339l-1.695,7.46c-1.356,0.339-3.052,0.339-4.747,0.339
	C269.902,79.343,268.207,79.004,266.85,79.004z M278.379,78.326l1.695-7.121c5.425-0.339,10.172-1.356,13.563-2.713
	C289.568,73.24,284.143,76.63,278.379,78.326z"/>
<path style="fill:#2F4B57;" d="M247.523,34.246h47.47c0,0,6.781-5.086,7.121-5.086C301.097,12.885,287.873,0,271.258,0
	c-16.275,0-29.838,12.885-30.856,28.821C240.742,28.821,247.523,34.246,247.523,34.246z"/>
<path style="fill:#2B3B4E;" d="M302.114,28.482c0,7.121-13.902,13.224-30.856,13.224s-30.856-5.764-30.856-13.224
	c0-1.017,0.339-1.695,0.678-2.713c5.764,3.391,17.293,5.764,30.177,5.764c12.885,0,24.413-2.374,30.177-5.764
	C301.775,26.787,302.114,27.465,302.114,28.482z"/>
<g>
</g>
<g>
</g>
<g>
</g>
<g>
</g>
<g>
</g>
<g>
</g>
<g>
</g>
<g>
</g>
<g>
</g>
<g>
</g>
<g>
</g>
<g>
</g>
<g>
</g>
<g>
</g>
<g>
</g>
</svg>
