<svg height="512pt" viewBox="0 0 512 512.00301" width="512pt" xmlns="http://www.w3.org/2000/svg"><path d="m512 256.003906c.09375 44.324219-11.410156 87.90625-33.367188 126.410156-3 5.296876-6.179687 10.503907-9.621093 15.625-3.714844 5.679688-7.722657 11.160157-12.007813 16.417969-3.882812 5.03125-8.121094 9.976563-12.445312 14.742188-5.207032 5.652343-10.679688 11.035156-16.332032 16.242187-5.207031 4.769532-10.679687 9.359375-16.328124 13.597656-4.0625 3.265626-8.300782 6.265626-12.535157 9.179688-6.621093 4.414062-13.332031 8.5625-20.304687 12.445312h-.175782c-11.765624 6.417969-24.015624 11.910157-36.636718 16.421876-9.308594 3.390624-18.835938 6.164062-28.511719 8.296874-10.199219 2.417969-20.550781 4.128907-30.984375 5.121094-.640625.128906-1.289062.21875-1.941406.261719-8.210938.796875-16.421875 1.238281-24.808594 1.238281-141.382812 0-256-114.617187-256-256 .00390625-25.824218 3.871094-51.503906 11.476562-76.183594 3.40625-10.757812 7.507813-21.285156 12.269532-31.515624 4.117187-8.863282 8.714844-17.5 13.773437-25.863282l.175781-.265625c7.40625-12.078125 15.820313-23.507812 25.160157-34.160156 5.128906-6.027344 10.613281-11.746094 16.417969-17.128906l.175781-.175781c8.089843-7.882813 16.765625-15.140626 25.953125-21.714844 5.648437-4.148438 11.476562-8.03125 17.390625-11.742188 6.179687-3.707031 12.535156-7.148437 18.980469-10.328125 5.710937-2.980469 11.574218-5.660156 17.566406-8.03125h.085937c5.917969-2.472656 11.917969-4.679687 18.097657-6.621093 5.738281-1.855469 11.652343-3.53125 17.566406-4.945313 76.363281-18.667969 157.066406-1.234375 218.910156 47.292969s97.976562 122.773437 98 201.382812zm0 0" fill="#c03a2b"/><g fill="#e6e7e8"><path d="m428.226562 445.441406c-5.207031 4.769532-10.679687 9.359375-16.328124 13.597656-178.125-23.265624-311.230469-175.234374-310.820313-354.871093-.039063-18.476563 1.40625-36.925781 4.324219-55.171875 5.648437-4.148438 11.476562-8.03125 17.390625-11.742188 1.28125 1.855469 1.757812 4.148438 1.324219 6.355469-16.726563 92.960937 5.894531 188.6875 62.46875 264.324219 56.570312 75.632812 142.007812 124.378906 235.902343 134.597656 2.199219.25 4.238281 1.285156 5.738281 2.910156zm0 0"/><path d="m457.003906 414.457031c-3.882812 5.03125-8.121094 9.976563-12.445312 14.742188-4.058594-.617188-8.03125-1.234375-12.003906-1.941407-2.308594-.410156-4.359376-1.71875-5.699219-3.636718-1.339844-1.921875-1.863281-4.296875-1.453125-6.601563.09375-.515625.242187-1.019531.441406-1.503906 1.425781-4.042969 5.585938-6.441406 9.800781-5.648437 5.558594 1.058593 11.121094 1.855468 16.769531 2.648437 1.695313.164063 3.296876.839844 4.589844 1.941406zm0 0"/><path d="m214.742188 265.988281c-2.738282-4.035156-8.226563-5.085937-12.261719-2.347656-4.035157 2.734375-5.085938 8.226563-2.347657 12.261719 6.621094 9.753906 13.832032 19.3125 21.414063 28.394531 1.992187 2.519531 5.191406 3.757813 8.359375 3.238281 3.164062-.519531 5.800781-2.71875 6.878906-5.742187 1.082032-3.023438.433594-6.394531-1.6875-8.800781-7.210937-8.644532-14.0625-17.726563-20.355468-27.003907zm0 0"/><path d="m166.242188 213.472656c4.5625 10.875 9.710937 21.660156 15.386718 32.0625 1.503906 2.769532 4.375 4.53125 7.527344 4.613282 3.152344.082031 6.109375-1.523438 7.757812-4.210938 1.648438-2.6875 1.738282-6.054688.234376-8.824219-5.378907-9.90625-10.257813-20.074219-14.617188-30.464843-1.886719-4.496094-7.058594-6.617188-11.558594-4.730469-4.496094 1.882812-6.613281 7.054687-4.730468 11.554687zm0 0"/><path d="m148.992188 118.292969h.882812c2.332031-.222657 4.480469-1.363281 5.972656-3.171875 1.488282-1.808594 2.199219-4.136719 1.972656-6.46875-1.078124-11.050782-1.617187-22.320313-1.625-33.800782-.003906-2.324218-.941406-4.550781-2.601562-6.179687-1.65625-1.632813-3.898438-2.53125-6.222656-2.496094-4.90625.070313-8.839844 4.074219-8.828125 8.976563 0 11.742187.574219 23.597656 1.710937 35.214844.460938 4.484374 4.230469 7.902343 8.738282 7.925781zm0 0"/><path d="m145.4375 145.527344c2.316406 11.640625 5.21875 23.15625 8.695312 34.503906 1.136719 3.710938 4.558594 6.242188 8.4375 6.242188.875-.003907 1.746094-.132813 2.585938-.386719 2.242188-.6875 4.117188-2.230469 5.214844-4.300781 1.101562-2.066407 1.332031-4.488282.648437-6.726563-3.304687-10.78125-6.0625-21.726563-8.265625-32.785156-.953125-4.78125-5.601562-7.886719-10.382812-6.933594-4.785156.953125-7.886719 5.601563-6.933594 10.386719zm0 0"/><path d="m298.472656 362.753906c-1.28125 1.960938-1.730468 4.351563-1.246094 6.640625.480469 2.292969 1.851563 4.296875 3.8125 5.578125 9.914063 6.460938 20.25 12.507813 30.730469 17.9375 4.3125 2.144532 9.550781.4375 11.769531-3.835937 2.21875-4.277344.597657-9.542969-3.640624-11.832031-9.957032-5.164063-19.78125-10.894532-29.164063-17.074219-1.96875-1.292969-4.367187-1.746094-6.671875-1.257813-2.300781.484375-4.316406 1.867188-5.589844 3.84375zm0 0"/><path d="m245.558594 317.964844c-3.414063 3.476562-3.363282 9.066406.113281 12.480468 8.414063 8.273438 17.355469 16.226563 26.582031 23.640626 3.800782 3.070312 9.367188 2.476562 12.4375-1.324219 3.070313-3.800781 2.476563-9.367188-1.324218-12.4375-8.773438-7.0625-17.277344-14.617188-25.28125-22.476563-1.671876-1.652344-3.9375-2.570312-6.289063-2.546875-2.351563.019531-4.597656.980469-6.238281 2.664063zm0 0"/><path d="m359.203125 396.246094c-.867187 2.175781-.835937 4.609375.089844 6.761718.925781 2.152344 2.667969 3.847657 4.847656 4.714844 11.03125 4.386719 22.277344 8.214844 33.695313 11.476563.785156.230469 1.605468.34375 2.425781.34375 4.410156.007812 8.148437-3.238281 8.757812-7.601563.613281-4.367187-2.089843-8.515625-6.328125-9.71875-10.789062-3.082031-21.566406-6.753906-32.019531-10.910156-4.527344-1.804688-9.664063.40625-11.46875 4.933594zm0 0"/><path d="m160.046875 23.75c-.882813 5.648438-1.589844 11.386719-2.207031 17.035156-.414063 4.515625-4.207032 7.964844-8.742188 7.945313h-.882812c-4.851563-.527344-8.386719-4.847657-7.941406-9.710938.441406-4.058593.882812-8.121093 1.5-12.09375 5.710937-2.980469 11.574218-5.660156 17.566406-8.03125h.085937c.648438 1.53125.863281 3.210938.621094 4.855469zm0 0"/><path d="m37.695312 122.175781c2.957032 1.679688 4.675782 4.910157 4.414063 8.300781-.441406 5.648438-.707031 11.386719-.792969 17.125-.125 4.792969-4.035156 8.621094-8.828125 8.648438h-.179687c-4.445313-.109375-8.117188-3.515625-8.5625-7.945312zm0 0"/><path d="m69.675781 290.5c-4.910156-11.210938-9.210937-22.683594-12.878906-34.363281-.945313-3.011719-3.425781-5.289063-6.503906-5.972657-3.082031-.6875-6.292969.320313-8.425781 2.648438-2.136719 2.324219-2.867188 5.609375-1.921876 8.621094 3.867188 12.296875 8.394532 24.378906 13.558594 36.191406 1.199219 2.988281 3.925782 5.085938 7.121094 5.480469 3.195312.390625 6.347656-.988281 8.234375-3.597657 1.882813-2.609374 2.195313-6.035156.816406-8.945312zm0 0"/><path d="m47.722656 220.578125c-2.375-12.003906-4.101562-24.128906-5.171875-36.316406-.222656-3.183594-2.144531-6-5.03125-7.367188-2.882812-1.363281-6.28125-1.066406-8.882812.78125-2.605469 1.847657-4.007813 4.957031-3.671875 8.128907 1.125 12.824218 2.9375 25.574218 5.4375 38.199218.609375 3.097656 2.824218 5.636719 5.8125 6.65625 2.988281 1.019532 6.292968.367188 8.667968-1.714844 2.375-2.082031 3.457032-5.269531 2.839844-8.367187zm0 0"/><path d="m215.007812 450.890625c-10.664062-6.003906-20.996093-12.570313-30.960937-19.667969-2.566406-1.832031-5.914063-2.15625-8.785156-.851562-2.871094 1.308594-4.828125 4.046875-5.128907 7.1875-.304687 3.140625 1.089844 6.203125 3.65625 8.035156 10.476563 7.46875 21.34375 14.371094 32.558594 20.683594 4.246094 2.390625 9.628906.882812 12.023438-3.363282 2.390625-4.25.882812-9.632812-3.363282-12.023437zm0 0"/><path d="m129.308594 382.519531c-3.308594-3.453125-8.761719-3.644531-12.304688-.433593-3.542968 3.214843-3.882812 8.660156-.769531 12.289062 8.632813 9.53125 17.765625 18.597656 27.367187 27.152344 3.640626 3.242187 9.222657 2.917968 12.460938-.722656 3.242188-3.640626 2.917969-9.222657-.722656-12.464844-9.128906-8.136719-17.820313-16.757813-26.03125-25.820313zm0 0"/><path d="m282.308594 479.632812c-11.695313-3.558593-23.1875-7.746093-34.429688-12.542968-4.472656-1.867188-9.613281.21875-11.515625 4.675781-1.90625 4.457031.136719 9.613281 4.578125 11.554687 11.832032 5.066407 23.929688 9.488282 36.238282 13.242188.832031.25 1.699218.378906 2.566406.378906 4.375 0 8.089844-3.203125 8.734375-7.53125.640625-4.328125-1.984375-8.472656-6.171875-9.742187zm0 0"/><path d="m86.203125 323.261719c-2.4375-4.226563-7.839844-5.679688-12.066406-3.242188-4.226563 2.4375-5.679688 7.839844-3.242188 12.070313 6.414063 11.160156 13.421875 21.96875 20.992188 32.378906 1.664062 2.285156 4.324219 3.640625 7.152343 3.636719 3.320313-.003907 6.355469-1.871094 7.859376-4.832031 1.503906-2.960938 1.21875-6.511719-.738282-9.195313-7.199218-9.910156-13.859375-20.195313-19.957031-30.816406zm0 0"/><path d="m342.246094 497.085938c-9.308594 3.390624-18.835938 6.164062-28.511719 8.296874-4.398437-1.449218-6.917969-6.066406-5.75-10.546874 1.167969-4.480469 5.617187-7.285157 10.164063-6.402344 5.648437 1.058594 11.296874 1.941406 16.949218 2.734375 3.332032.410156 6.121094 2.71875 7.148438 5.917969zm0 0"/><path d="m79.449219 70.710938c1.917969 1.957031 2.804687 4.707031 2.382812 7.417968-.792969 5.648438-1.410156 11.296875-1.941406 17.125-.410156 4.5625-4.246094 8.050782-8.828125 8.03125-.265625.015625-.535156-.015625-.792969-.085937-2.320312-.203125-4.46875-1.324219-5.957031-3.113281-1.492188-1.789063-2.207031-4.101563-1.988281-6.421876.175781-1.941406.351562-3.796874.53125-5.648437zm0 0"/><path d="m268.164062 449.699219c2.867188 1.367187 6.25 1.089843 8.851563-.730469 2.605469-1.816406 4.035156-4.890625 3.742187-8.054688-.296874-3.160156-2.265624-5.921874-5.160156-7.230468-10.484375-4.871094-20.714844-10.277344-30.648437-16.199219-4.191407-2.496094-9.609375-1.121094-12.105469 3.070313-2.496094 4.1875-1.125 9.609374 3.066406 12.105468 10.457032 6.222656 21.222656 11.90625 32.253906 17.039063zm0 0"/><path d="m189.328125 376.171875c-2.328125-2.128906-5.617187-2.851563-8.621094-1.902344-3.007812.953125-5.28125 3.433594-5.960937 6.515625-.679688 3.078125.335937 6.289063 2.664062 8.417969 8.984375 8.210937 18.378906 15.960937 28.152344 23.214844 1.511719 1.144531 3.355469 1.765625 5.25 1.765625 3.800781 0 7.171875-2.429688 8.375-6.035156 1.203125-3.605469-.039062-7.574219-3.078125-9.855469-9.292969-6.917969-18.234375-14.300781-26.78125-22.121094zm0 0"/><path d="m341.0625 456.265625c-11.257812-2.628906-22.371094-5.828125-33.304688-9.585937-3-1.101563-6.359374-.496094-8.785156 1.582031-2.425781 2.074219-3.539062 5.300781-2.914062 8.433593.625 3.132813 2.894531 5.683594 5.933594 6.667969 11.503906 3.964844 23.207031 7.339844 35.054687 10.105469 4.695313.984375 9.3125-1.960938 10.40625-6.628906 1.089844-4.671875-1.746094-9.355469-6.390625-10.554688zm0 0"/><path d="m121.035156 307.441406c2.027344-1.175781 3.503906-3.105468 4.101563-5.371094.601562-2.261718.28125-4.671874-.894531-6.695312-5.808594-10.019531-11.097657-20.332031-15.847657-30.898438-2.074219-4.3125-7.210937-6.183593-11.578125-4.21875-4.363281 1.964844-6.367187 7.054688-4.511718 11.46875 4.996093 11.101563 10.558593 21.945313 16.671874 32.476563 2.449219 4.210937 7.84375 5.644531 12.058594 3.203125zm0 0"/><path d="m143.160156 324.46875c-2.941406-3.707031-8.277344-4.441406-12.109375-1.660156-3.828125 2.777344-4.785156 8.082031-2.167969 12.023437 7.144532 9.855469 14.785157 19.339844 22.890626 28.417969 3.246093 3.636719 8.828124 3.953125 12.464843.707031 3.636719-3.25 3.953125-8.828125.707031-12.464843-7.710937-8.636719-14.984374-17.65625-21.785156-27.023438zm0 0"/><path d="m72.050781 174.355469c.34375.003906.6875-.019531 1.027344-.0625 2.324219-.265625 4.449219-1.445313 5.902344-3.28125 1.457031-1.835938 2.125-4.171875 1.855469-6.496094-1.339844-11.496094-2.097657-23.050781-2.269532-34.625-.125-4.847656-4.097656-8.714844-8.949218-8.703125-2.34375.03125-4.574219.996094-6.207032 2.671875-1.632812 1.679687-2.53125 3.9375-2.5 6.28125.171875 12.164063.957032 24.316406 2.351563 36.402344.515625 4.464843 4.300781 7.824219 8.789062 7.8125zm0 0"/><path d="m76.050781 192.011719c-4.761719 1.050781-7.769531 5.761719-6.71875 10.523437 2.636719 11.894532 5.878907 23.648438 9.710938 35.210938 1.199219 3.613281 4.574219 6.046875 8.378906 6.046875.945313.003906 1.882813-.148438 2.78125-.449219 2.222656-.734375 4.0625-2.324219 5.113281-4.417969 1.050782-2.09375 1.226563-4.515625.492188-6.738281-3.648438-10.988281-6.726563-22.15625-9.226563-33.457031-.503906-2.289063-1.898437-4.28125-3.871093-5.542969-1.976563-1.257812-4.371094-1.683594-6.660157-1.175781zm0 0"/><path d="m399.363281 468.21875c-6.621093 4.414062-13.332031 8.5625-20.304687 12.445312h-.175782c-1.855468-.265624-3.796874-.441406-5.652343-.707031-4.605469-.863281-7.734375-5.175781-7.125-9.824219.609375-4.648437 4.746093-8.007812 9.421875-7.652343 5.648437.707031 11.300781 1.234375 17.125 1.675781 2.769531.164062 5.28125 1.683594 6.710937 4.0625zm0 0"/><path d="m195.355469 10.417969c-.527344 5.738281-.96875 11.390625-1.324219 17.214843-.230469 4.65625-4.078125 8.308594-8.738281 8.296876h-.53125c-4.84375-.28125-8.546875-4.421876-8.296875-9.265626.175781-4.769531.617187-9.625 1.058594-14.390624 5.738281-1.855469 11.652343-3.53125 17.566406-4.945313.269531 1.007813.359375 2.054687.265625 3.089844zm0 0"/><path d="m286.792969 304.988281c2.285156 2.175781 5.558593 2.96875 8.585937 2.078125 3.027344-.886718 5.351563-3.324218 6.09375-6.394531.746094-3.066406-.203125-6.296875-2.488281-8.476563-8.855469-8.449218-17.25-17.367187-25.152344-26.710937-2.011719-2.480469-5.210937-3.679687-8.359375-3.132813-3.148437.542969-5.757812 2.75-6.820312 5.761719-1.058594 3.015625-.410156 6.367188 1.699218 8.765625 8.304688 9.835938 17.132813 19.21875 26.441407 28.109375zm0 0"/><path d="m381.882812 370.152344c11.648438 5.464844 23.582032 10.296875 35.75 14.46875.921876.320312 1.886719.484375 2.863282.484375 4.3125 0 7.996094-3.121094 8.703125-7.375.710937-4.257813-1.761719-8.402344-5.84375-9.800781-11.566407-3.96875-22.910157-8.5625-33.976563-13.753907-2.871094-1.445312-6.296875-1.21875-8.949218.59375-2.652344 1.8125-4.113282 4.921875-3.808594 8.121094.300781 3.199219 2.316406 5.980469 5.261718 7.261719zm0 0"/><path d="m347.90625 351.898438c4.15625 2.433593 9.496094 1.089843 12.003906-3.027344 2.503906-4.113282 1.246094-9.476563-2.824218-12.050782-10.449219-6.363281-20.546876-13.28125-30.25-20.726562-3.875-2.792969-9.261719-2.003906-12.167969 1.785156-2.90625 3.785156-2.277344 9.195313 1.421875 12.214844 10.207031 7.832031 20.828125 15.109375 31.816406 21.804688zm0 0"/><path d="m217.214844 213.023438c6.019531 11.378906 12.644531 22.429687 19.851562 33.101562 1.765625 2.613281 4.792969 4.085938 7.9375 3.863281 3.144532-.222656 5.933594-2.109375 7.3125-4.945312 1.382813-2.835938 1.144532-6.191407-.621094-8.804688-6.851562-10.128906-13.152343-20.625-18.867187-31.433593-1.472656-2.792969-4.324219-4.582032-7.476563-4.699219-3.152343-.117188-6.128906 1.453125-7.808593 4.125-1.679688 2.671875-1.804688 6.035156-.328125 8.828125zm0 0"/><path d="m184.789062 55.96875c-4.867187.261719-8.601562 4.417969-8.339843 9.289062.679687 12.851563 2.050781 25.65625 4.101562 38.363282.507813 3.113281 2.636719 5.722656 5.585938 6.839844 2.953125 1.121093 6.273437.578124 8.71875-1.414063 2.445312-1.996094 3.636719-5.144531 3.132812-8.257813-1.953125-12.078124-3.261719-24.25-3.914062-36.46875-.121094-2.339843-1.167969-4.53125-2.910157-6.097656-1.742187-1.566406-4.035156-2.378906-6.375-2.253906zm0 0"/><path d="m188.78125 141.339844c3.421875 12.421875 7.515625 24.644531 12.269531 36.617187 1.332031 3.367188 4.585938 5.582031 8.207031 5.582031 2.925782-.003906 5.660157-1.453124 7.300782-3.871093 1.644531-2.421875 1.980468-5.496094.902344-8.214844-4.511719-11.382813-8.40625-22.996094-11.660157-34.800781-1.351562-4.632813-6.167969-7.320313-10.820312-6.039063-4.652344 1.28125-7.414063 6.058594-6.199219 10.726563zm0 0"/><path d="m478.632812 382.414062c-3 5.296876-6.179687 10.503907-9.621093 15.625-4.765625-.792968-9.445313-1.765624-14.035157-2.824218-3.164062-.609375-5.742187-2.894532-6.730468-5.957032-.988282-3.066406-.230469-6.425781 1.980468-8.765624 2.207032-2.34375 5.515626-3.296876 8.632813-2.492188 5.5625 1.234375 11.210937 2.296875 16.859375 3.265625 1.046875.15625 2.042969.550781 2.914062 1.148437zm0 0"/></g><path d="m435.117188 144.390625c-19.871094-24.6875-48.292969-34.789063-63.484376-22.5625-15.191406 12.230469-11.398437 42.152344 8.46875 66.839844 19.871094 24.6875 48.292969 34.785156 63.484376 22.558593 15.191406-12.226562 11.398437-42.152343-8.46875-66.835937zm0 0" fill="#e64c3c"/><path d="m319.183594 60.351562c-14.320313-2.964843-27.855469 3.917969-30.226563 15.375-2.375 11.457032 7.3125 23.152344 21.636719 26.117188 14.320312 2.964844 27.855469-3.917969 30.226562-15.375 2.375-11.457031-7.3125-23.152344-21.636718-26.117188zm0 0" fill="#e64c3c"/></svg>